<svg width="102" height="200" viewBox="0 0 102 200" fill="none" xmlns="http://www.w3.org/2000/svg">
<g id="Group 4">
<g id="Group 5">
<path id="Vector 6" d="M19.3394 149.074L7.19457 161.219L21.4515 175.476V188.148H34.1243L47.8532 201.877L59.998 189.732" stroke="white" stroke-width="3"/>
<path id="Vector 7" d="M44.6851 123.728L32.5403 135.873L46.7972 150.13V162.803H59.47L73.1989 176.532L85.3437 164.387" stroke="white" stroke-width="3"/>
<path id="Vector 8" d="M70.0308 98.3826L57.886 110.527L72.1429 124.784V137.457H84.8157L98.5446 151.186L110.689 139.041" stroke="white" stroke-width="3"/>
<path id="Vector 9" d="M95.3762 73.0369L83.2314 85.1816L97.4884 99.4386V112.111H110.161L123.89 125.84L136.035 113.695" stroke="white" stroke-width="3"/>
</g>
<path id="Vector 10" d="M120.722 47.6913L108.577 59.836L122.834 74.093V86.7658H135.507L149.236 100.495L161.381 88.3499" stroke="white" stroke-width="5"/>
</g>
</svg>
